HIERARCHY
ROOT Hips
{
	OFFSET -0.001795 -0.223333 0.028219
	CHANNELS 6 Xposition Yposition Zposition Zrotation Yrotation Xrotation 
	JOINT LeftUpLeg
	{
		OFFSET 0.069520 -0.091406 -0.006815
		CHANNELS 3 Zrotation Yrotation Xrotation
		JOINT LeftLeg
		{
			OFFSET 0.034277 -0.375199 -0.004496
			CHANNELS 3 Zrotation Yrotation Xrotation
			JOINT LeftFoot
			{
				OFFSET -0.013596 -0.397961 -0.043693
				CHANNELS 3 Zrotation Yrotation Xrotation
				JOINT LeftToe
				{
					OFFSET 0.026358 -0.055791 0.119288
					CHANNELS 3 Zrotation Yrotation Xrotation
					End Site
					{
						OFFSET 0.000000 0.000000 0.000000
					}
				}
			}
		}
	}
	JOINT RightUpLeg
	{
		OFFSET -0.067670 -0.090522 -0.004320
		CHANNELS 3 Zrotation Yrotation Xrotation
		JOINT RightLeg
		{
			OFFSET -0.038290 -0.382569 -0.008850
			CHANNELS 3 Zrotation Yrotation Xrotation
			JOINT RightFoot
			{
				OFFSET 0.015774 -0.398415 -0.042312
				CHANNELS 3 Zrotation Yrotation Xrotation
				JOINT RightToe
				{
					OFFSET -0.025372 -0.048144 0.123348
					CHANNELS 3 Zrotation Yrotation Xrotation
					End Site
					{
						OFFSET 0.000000 0.000000 0.000000
					}
				}
			}
		}
	}
	JOINT Spine
	{
		OFFSET -0.002533 0.108963 -0.026696
		CHANNELS 3 Zrotation Yrotation Xrotation
		JOINT Spine1
		{
			OFFSET 0.005487 0.135180 0.001092
			CHANNELS 3 Zrotation Yrotation Xrotation
			JOINT Spine2
			{
				OFFSET 0.001457 0.052922 0.025425
				CHANNELS 3 Zrotation Yrotation Xrotation
				JOINT Neck
				{
					OFFSET -0.002778 0.213870 -0.042857
					CHANNELS 3 Zrotation Yrotation Xrotation
					JOINT Head
					{
						OFFSET 0.005152 0.064970 0.051349
						CHANNELS 3 Zrotation Yrotation Xrotation
						End Site
						{
							OFFSET 0.000000 0.000000 0.000000
						}
					}
				}
				JOINT LeftShoulder
				{
					OFFSET 0.078845 0.121749 -0.034090
					CHANNELS 3 Zrotation Yrotation Xrotation
					JOINT LeftArm
					{
						OFFSET 0.090977 0.030469 -0.008868
						CHANNELS 3 Zrotation Yrotation Xrotation
						JOINT LeftForeArm
						{
							OFFSET 0.259612 -0.012772 -0.027456
							CHANNELS 3 Zrotation Yrotation Xrotation
							JOINT LeftHand
							{
								OFFSET 0.249234 0.008986 -0.001171
								CHANNELS 3 Zrotation Yrotation Xrotation
								End Site
								{
									OFFSET 0.000000 0.000000 0.000000
								}
							}
						}
					}
				}
				JOINT RightShoulder
				{
					OFFSET -0.081759 0.118833 -0.038615
					CHANNELS 3 Zrotation Yrotation Xrotation
					JOINT RightArm
					{
						OFFSET -0.096012 0.032551 -0.009143
						CHANNELS 3 Zrotation Yrotation Xrotation
						JOINT RightForeArm
						{
							OFFSET -0.253742 -0.013329 -0.021401
							CHANNELS 3 Zrotation Yrotation Xrotation
							JOINT RightHand
							{
								OFFSET -0.255298 0.007772 -0.005559
								CHANNELS 3 Zrotation Yrotation Xrotation
								End Site
								{
									OFFSET 0.000000 0.000000 0.000000
								}
							}
						}
					}
				}
			}
		}
	}
}
MOTION
Frames: 16
Frame Time: 0.050000
0.000000 0.408340 0.000000 -4.197651 -3.493841 14.097502 17.942449 6.238040 -65.438079 -1.895062 -2.175043 134.385620 11.795062 6.114971 -61.841756 0.000000 0.000000 0.000000 -20.139310 -1.976444 -51.067467 6.707970 -6.882959 132.610100 -4.581628 -12.153659 4.778124 0.000000 0.000000 0.000000 -6.265265 1.786232 49.236457 7.025469 -0.207289 -32.419614 4.940619 8.288672 23.697683 -0.570120 3.288688 -41.428733 0.000000 0.000000 0.000000 -25.891028 -0.997378 -3.732071 -45.942105 -14.118175 -1.329044 27.539975 -77.581489 -18.797487 0.000000 0.000000 0.000000 15.199884 4.769869 3.120001 52.516869 22.042386 2.553571 -28.338208 54.629814 -8.953639 0.000000 0.000000 0.000000 
-0.001462 0.444890 0.001780 -4.952222 -4.013473 15.824398 15.875290 5.073863 -64.278416 -0.408436 -4.774003 127.479863 11.659626 7.828177 -61.697906 0.000000 0.000000 0.000000 -17.970915 -0.875933 -50.850741 8.840641 -10.628070 125.881538 -7.790510 -18.745577 -0.750918 0.000000 0.000000 0.000000 -5.753164 1.616192 47.563044 4.845703 0.250999 -34.192114 6.944658 6.805598 24.605100 0.428732 2.704150 -42.735670 0.000000 0.000000 0.000000 -26.280179 -1.092180 -3.065567 -47.372416 -15.612733 -0.982027 27.996409 -73.134658 -16.910836 0.000000 0.000000 0.000000 16.942290 5.640456 3.304873 52.023432 21.034616 1.982256 -35.691093 55.982414 -13.417661 0.000000 0.000000 0.000000 
-0.002869 0.487474 0.004348 -2.955704 -1.745896 15.763399 13.315594 2.400655 -63.420226 -0.566978 -4.817809 120.769905 11.213957 4.730181 -58.400643 0.000000 0.000000 0.000000 -20.073202 -2.287713 -48.365236 10.310754 -14.145833 119.026454 -8.234689 -19.862066 -4.173932 0.000000 0.000000 0.000000 -3.372899 -0.089153 44.527890 4.898933 0.105568 -32.105934 1.863271 6.209612 23.194283 2.225655 2.083533 -40.869312 0.000000 0.000000 0.000000 -30.460679 -2.013877 -3.179757 -44.586279 -17.206872 -0.343715 25.455364 -68.766092 -13.875388 0.000000 0.000000 0.000000 22.796036 7.338998 4.780908 47.745560 22.244237 1.706626 -36.030914 53.332909 -12.996226 0.000000 0.000000 0.000000 
-0.003779 0.535117 0.006589 -2.460425 -2.606442 14.309812 11.519064 1.415370 -58.341088 -0.157009 -3.970621 112.520068 10.668145 6.541361 -54.815627 0.000000 0.000000 0.000000 -17.256011 -0.971721 -46.848264 11.125511 -12.573899 112.040585 -10.556395 -25.833569 -3.757832 0.000000 0.000000 0.000000 -4.176526 0.423490 43.172257 4.179382 0.338678 -34.296880 2.868759 4.711019 24.975637 1.503657 2.055997 -40.158114 0.000000 0.000000 0.000000 -32.344774 0.872349 -4.619823 -44.838296 -16.720251 -0.912534 22.602824 -69.112213 -11.360749 0.000000 0.000000 0.000000 22.277098 6.721666 3.815550 48.650642 23.130791 2.039752 -33.475680 51.285163 -11.434770 0.000000 0.000000 0.000000 
-0.004972 0.597482 0.009476 -1.485160 -2.370708 15.465221 11.090274 0.940696 -55.301263 -0.182651 -2.915252 101.828556 9.977645 0.911489 -50.685068 0.000000 0.000000 0.000000 -17.152332 -0.819083 -42.908394 12.244556 -11.925271 100.560203 -10.193564 -26.286808 -10.295496 0.000000 0.000000 0.000000 -3.916791 0.235886 39.111791 4.115477 0.344731 -33.930266 1.799687 3.800273 25.239552 1.447139 1.907704 -39.091247 0.000000 0.000000 0.000000 -31.802411 0.966505 -4.212937 -46.451947 -16.350912 -1.179690 23.069685 -63.757146 -10.261276 0.000000 0.000000 0.000000 24.075293 7.268163 4.001813 50.973715 25.027730 3.080415 -36.189796 45.353330 -10.842568 0.000000 0.000000 0.000000 
-0.005838 0.650474 0.012460 -1.843931 -2.525528 15.859567 12.348041 1.382711 -51.071619 -0.873514 -1.089774 92.431848 9.111821 -2.554009 -47.007025 0.000000 0.000000 0.000000 -15.894360 -0.229275 -38.798790 12.537190 -10.180835 90.961449 -9.466563 -24.917231 -13.782758 0.000000 0.000000 0.000000 -4.012966 0.278384 36.785138 4.114738 0.427085 -35.115046 2.588151 3.671927 26.663696 0.713997 2.145541 -38.722097 0.000000 0.000000 0.000000 -30.630089 1.537446 -4.276319 -49.175789 -17.546830 -0.863766 21.537666 -58.942405 -8.160417 0.000000 0.000000 0.000000 22.457529 5.986097 3.129879 54.848674 26.190845 4.115858 -34.950258 41.970337 -9.201009 0.000000 0.000000 0.000000 
-0.006446 0.700164 0.014544 -1.655785 -2.313069 15.860035 11.711891 0.847357 -46.922003 -1.142720 -0.588329 83.578322 7.955569 -3.103369 -42.013540 0.000000 0.000000 0.000000 -15.142491 0.053275 -34.088821 13.292364 -9.365345 80.735608 -8.392781 -21.397296 -15.272198 0.000000 0.000000 0.000000 -3.820110 0.160079 34.093133 4.493203 0.417090 -35.660933 2.328218 3.363930 28.075618 0.418481 2.268453 -39.619735 0.000000 0.000000 0.000000 -29.596942 1.873144 -4.195119 -50.898552 -17.686614 -0.955501 20.151295 -53.919343 -6.462891 0.000000 0.000000 0.000000 22.466322 5.660474 2.914045 56.667374 25.983329 4.160758 -32.591858 39.989780 -7.806543 0.000000 0.000000 0.000000 
-0.006886 0.736937 0.015794 -2.003976 -2.127948 16.421358 11.960153 0.806328 -44.639347 -2.203954 0.549735 77.256151 7.038386 -1.617333 -37.050232 0.000000 0.000000 0.000000 -13.681546 0.438725 -31.012215 12.873524 -7.846699 72.945513 -7.249389 -16.998654 -16.641848 0.000000 0.000000 0.000000 -3.694276 0.087513 31.713418 5.719304 0.188596 -34.435383 1.535414 3.958955 27.886886 1.152874 2.081663 -39.884922 0.000000 0.000000 0.000000 -29.254485 0.827659 -3.699948 -50.572317 -18.849560 -0.377471 18.745710 -49.761902 -5.411285 0.000000 0.000000 0.000000 23.779051 5.518767 3.057650 55.883544 26.128403 4.078926 -31.558334 39.034267 -7.185910 0.000000 0.000000 0.000000 
-0.007350 0.763353 0.016213 -1.773047 -2.424235 16.393120 12.437312 0.962329 -42.975050 -3.354791 1.700816 71.343336 5.748245 -2.405691 -31.528604 0.000000 0.000000 0.000000 -13.530427 0.520353 -28.994379 12.687100 -6.729691 66.443825 -6.502542 -14.010719 -16.345906 0.000000 0.000000 0.000000 -3.805767 0.155300 30.216980 4.772149 0.327898 -34.745273 1.606494 3.057754 28.689437 1.221478 1.905218 -40.162225 0.000000 0.000000 0.000000 -28.693262 1.081865 -3.315277 -51.015224 -20.501656 0.110715 18.976850 -46.409969 -4.835648 0.000000 0.000000 0.000000 23.684585 6.072213 3.089417 55.740452 25.881237 3.852008 -28.488487 37.492475 -6.064605 0.000000 0.000000 0.000000 
-0.007576 0.781928 0.016169 -1.356624 -1.744133 15.934060 12.552169 0.773692 -41.148189 -4.633434 2.326765 66.053416 5.020164 -1.988886 -27.631654 0.000000 0.000000 0.000000 -13.345593 0.486775 -26.526320 11.914080 -5.836946 61.150934 -5.628094 -10.695759 -15.610832 0.000000 0.000000 0.000000 -4.215670 0.226125 29.382313 4.831675 0.266889 -34.052793 1.524626 2.913149 28.468599 1.279339 1.953225 -40.677174 0.000000 0.000000 0.000000 -28.477918 1.290668 -3.558515 -51.295093 -21.089431 0.462680 16.513955 -44.843195 -3.743177 0.000000 0.000000 0.000000 22.863755 5.592687 2.855472 56.074883 26.165912 4.096316 -24.361919 36.120488 -4.626438 0.000000 0.000000 0.000000 
-0.007248 0.795148 0.015923 -1.330886 -1.507859 15.165235 11.965015 0.511899 -40.433712 -5.017170 2.374091 63.219410 4.675930 1.244961 -21.925101 0.000000 0.000000 0.000000 -12.968526 0.529375 -24.099365 11.525835 -5.215429 56.992399 -5.476478 -10.684056 -13.902575 0.000000 0.000000 0.000000 -4.011723 0.128504 28.391723 4.477021 0.263733 -33.570582 1.535238 2.606466 28.615340 1.003676 2.040815 -40.575562 0.000000 0.000000 0.000000 -28.123508 2.144389 -4.012551 -52.150752 -21.305267 0.615038 15.035544 -44.676154 -3.095730 0.000000 0.000000 0.000000 21.889236 5.628577 2.808037 56.876852 26.421147 4.380444 -20.963727 34.424759 -3.495006 0.000000 0.000000 0.000000 
-0.006507 0.807394 0.015577 -1.266756 -0.581845 14.442063 11.125909 0.044964 -39.023028 -4.485819 1.477498 59.380811 4.465850 2.746317 -18.169181 0.000000 0.000000 0.000000 -12.222012 0.558750 -21.572404 10.479780 -4.468508 53.061690 -5.200334 -10.297827 -12.202023 0.000000 0.000000 0.000000 -3.868397 0.002917 28.016418 4.286919 0.294333 -33.802669 1.945098 2.101731 28.935709 0.731486 2.103976 -39.673052 0.000000 0.000000 0.000000 -28.946144 2.381979 -4.277527 -52.667238 -21.245695 0.582949 15.071797 -44.837359 -3.076653 0.000000 0.000000 0.000000 21.276153 5.770804 2.915273 56.829832 26.775725 4.482135 -18.242461 33.220805 -2.660718 0.000000 0.000000 0.000000 
-0.005403 0.816887 0.015237 -1.231472 -0.355956 13.425055 10.605479 -0.165528 -37.413746 -4.217815 1.127386 57.258305 4.232165 3.437593 -15.425815 0.000000 0.000000 0.000000 -12.502436 0.485127 -20.540693 10.780389 -4.578214 51.430265 -4.822553 -10.360369 -7.936120 0.000000 0.000000 0.000000 -3.954232 -0.000653 27.841876 4.468346 0.183508 -32.651190 2.077469 2.408302 28.176115 0.488696 2.289394 -39.889758 0.000000 0.000000 0.000000 -30.036821 2.613303 -4.841304 -52.193008 -21.042701 0.654135 11.879467 -45.372148 -1.981560 0.000000 0.000000 0.000000 20.672599 5.039548 2.571391 57.746762 27.146244 4.943149 -15.475348 32.752727 -1.898886 0.000000 0.000000 0.000000 
-0.004475 0.827709 0.015104 -1.376693 -0.141221 12.390460 10.179146 -0.318824 -35.985679 -3.906958 0.781416 54.823720 4.053665 5.045086 -10.800447 0.000000 0.000000 0.000000 -11.614118 0.562459 -18.876380 9.666484 -3.746721 49.011131 -4.511702 -10.412078 -4.380021 0.000000 0.000000 0.000000 -3.731920 -0.091531 27.293094 4.543314 0.133366 -32.190945 2.020462 1.996924 28.030610 0.791756 2.099550 -39.323099 0.000000 0.000000 0.000000 -30.223466 3.330736 -5.230056 -53.563879 -20.954531 0.700396 10.390920 -45.467971 -1.297639 0.000000 0.000000 0.000000 19.291512 5.748947 2.835513 58.991724 27.734168 5.572995 -13.684753 31.882689 -1.464670 0.000000 0.000000 0.000000 
-0.003662 0.834659 0.014828 -1.465929 -0.958853 11.760041 10.098226 -0.224986 -34.604203 -3.968100 1.016360 52.836378 4.073875 6.261182 -7.937997 0.000000 0.000000 0.000000 -11.187314 0.641445 -17.934271 9.087265 -3.093350 47.970658 -4.481398 -10.504860 -3.533178 0.000000 0.000000 0.000000 -3.927067 0.019848 26.788625 4.133224 0.151206 -31.571427 2.659979 2.541630 28.047878 0.423346 2.274281 -39.440417 0.000000 0.000000 0.000000 -30.513211 3.082246 -5.139717 -53.728480 -21.190904 0.847596 8.000816 -45.078633 -0.348819 0.000000 0.000000 0.000000 18.267303 5.959945 2.945367 59.730242 28.976694 6.428079 -12.792096 30.142930 -1.180405 0.000000 0.000000 0.000000 
-0.002948 0.841936 0.014005 -1.262521 -1.203874 11.034101 9.802349 -0.276984 -33.327191 -4.223476 1.190086 50.935987 4.138800 7.433640 -4.904976 0.000000 0.000000 0.000000 -10.697095 0.678986 -17.013566 8.708836 -2.735625 46.788157 -5.241063 -12.936997 -1.510879 0.000000 0.000000 0.000000 -3.841054 0.007916 26.506522 3.842115 0.157202 -31.011260 2.541975 2.672171 27.530197 0.403180 2.283363 -39.274439 0.000000 0.000000 0.000000 -30.055941 3.013138 -5.016709 -54.095355 -20.828961 0.761110 6.465718 -43.897340 0.224057 0.000000 0.000000 0.000000 17.922477 5.713067 2.768150 60.237247 29.549568 6.934489 -11.859855 28.743324 -0.945037 0.000000 0.000000 0.000000 
